<svg width="86" height="86" viewBox="0 0 86 86" fill="none" xmlns="http://www.w3.org/2000/svg">
<path d="M40.9118 51H24.5801C20.9504 51 18 48.064 18 44.452V21.548C18 17.936 20.9504 15 24.5801 15H40.9118C50.8844 15 59 23.076 59 33C59 42.924 50.8844 51 40.9118 51ZM24.5801 18.2C22.7271 18.2 21.2157 19.7 21.2157 21.548V44.452C21.2157 46.296 22.723 47.8 24.5801 47.8H40.9118C49.1118 47.8 55.7843 41.16 55.7843 33C55.7843 24.84 49.1118 18.2 40.9118 18.2H24.5801Z" fill="#161616"/>
<path d="M49.9118 72H33.5801C29.9504 72 27 69.064 27 65.452V42.548C27 38.936 29.9504 36 33.5801 36H49.9118C59.8844 36 68 44.076 68 54C68 63.924 59.8844 72 49.9118 72ZM33.5801 39.2C31.7271 39.2 30.2157 40.7 30.2157 42.548V65.452C30.2157 67.296 31.723 68.8 33.5801 68.8H49.9118C58.1118 68.8 64.7843 62.16 64.7843 54C64.7843 45.84 58.1118 39.2 49.9118 39.2H33.5801Z" fill="#161616"/>
<path fill-rule="evenodd" clip-rule="evenodd" d="M57.9241 49.6565L56.4246 48.1121L56.4227 48.1141L57.9203 49.6565L45.1281 62.8319L57.9241 49.6565ZM39.0798 56.7143L40.5792 55.1699L40.5792 55.1699L39.0798 56.7143L39.0798 56.7143ZM55.8866 47.5541L56.4246 47V47.0039L56.9626 47.558L58.462 49.1024L59 49.6565L58.462 50.2106L45.6117 63.4381L45.0738 63.9921L44.5358 63.4381L38.5418 57.2644L38.0038 56.7104L38.5418 56.1563L40.0412 54.6119L40.5792 54.0578L41.1172 54.6119L45.0738 58.687L55.8866 47.5541Z" fill="black"/>
</svg>
