<svg width="118" height="118" viewBox="0 0 118 118" fill="none" xmlns="http://www.w3.org/2000/svg">
<path d="M55.9118 49H39.5801C35.9504 49 33 46.064 33 42.452V19.548C33 15.936 35.9504 13 39.5801 13H55.9118C65.8844 13 74 21.076 74 31C74 40.924 65.8844 49 55.9118 49ZM39.5801 16.2C37.7271 16.2 36.2157 17.7 36.2157 19.548V42.452C36.2157 44.296 37.723 45.8 39.5801 45.8H55.9118C64.1118 45.8 70.7843 39.16 70.7843 31C70.7843 22.84 64.1118 16.2 55.9118 16.2H39.5801Z" fill="#161616"/>
<path d="M64.9118 70H48.5801C44.9504 70 42 67.064 42 63.452V40.548C42 36.936 44.9504 34 48.5801 34H64.9118C74.8844 34 83 42.076 83 52C83 61.924 74.8844 70 64.9118 70ZM48.5801 37.2C46.7271 37.2 45.2157 38.7 45.2157 40.548V63.452C45.2157 65.296 46.723 66.8 48.5801 66.8H64.9118C73.1118 66.8 79.7843 60.16 79.7843 52C79.7843 43.84 73.1118 37.2 64.9118 37.2H48.5801Z" fill="#161616"/>
<path fill-rule="evenodd" clip-rule="evenodd" d="M72.9241 47.6565L71.4246 46.1121L71.4227 46.1141L72.9203 47.6565L60.1281 60.8319L72.9241 47.6565ZM54.0798 54.7143L55.5792 53.1699L55.5792 53.1699L54.0798 54.7143L54.0798 54.7143ZM70.8866 45.5541L71.4246 45V45.0039L71.9626 45.558L73.462 47.1024L74 47.6565L73.462 48.2106L60.6117 61.4381L60.0738 61.9921L59.5358 61.4381L53.5418 55.2644L53.0038 54.7104L53.5418 54.1563L55.0412 52.6119L55.5792 52.0578L56.1172 52.6119L60.0738 56.687L70.8866 45.5541Z" fill="black"/>
<path d="M28 81.2072H35.2149C39.4419 81.2072 41.4755 82.7009 41.4755 85.7402C41.4755 87.3894 40.5731 88.5722 38.9756 89.2198C40.9833 89.9149 42.1707 91.2532 42.1707 93.3427C42.1707 96.7446 40.0075 98.316 35.1631 98.316H28V81.2072ZM34.5456 88.1621C36.3763 88.1621 37.2787 87.4671 37.2787 86.1503C37.3564 84.7861 36.6613 84.1429 35.0119 84.1429H32.0759V88.1621H34.5499H34.5456ZM34.8565 95.376C36.8167 95.376 37.8184 94.7069 37.8184 93.1096C37.8961 91.5381 36.8901 90.7913 34.9083 90.7913H32.0759V95.376H34.8608H34.8565Z" fill="#161616"/>
<path d="M43.915 81.2331H47.9347V84.5832H43.915V81.2331ZM43.9668 86.1547H47.8829V98.316H43.9668V86.1547Z" fill="#161616"/>
<path d="M53.7593 96.7964V98.316H49.9209V81H53.8111V87.6225C54.6099 86.513 55.8707 85.8438 57.4164 85.8438C60.5079 85.8438 62.8006 88.2916 62.8006 92.1555V92.1814C62.8006 96.0711 60.5338 98.6225 57.4164 98.6225C55.8707 98.6225 54.6099 97.9275 53.7593 96.7921V96.7964ZM58.7074 92.3152V92.0562C58.7074 89.7897 57.7273 88.7838 56.1815 88.7838C54.5322 88.7838 53.6557 90.0185 53.6557 92.1339V92.4188C53.6557 94.5299 54.5063 95.6912 56.1815 95.6912C57.7014 95.6912 58.7074 94.5817 58.7074 92.3152Z" fill="#161616"/>
<path d="M64.3506 81.0259H68.2667V98.3117H64.3506V81.0259Z" fill="#161616"/>
<path d="M70.2745 81.2331H74.2943V84.5832H70.2745V81.2331ZM70.3263 86.1547H74.2424V98.316H70.3263V86.1547Z" fill="#161616"/>
<path d="M75.6759 92.2591C75.6759 88.4471 78.2536 85.8956 82.2474 85.8956C86.2413 85.8956 88.793 88.4471 88.793 92.2591C88.793 96.0711 86.1895 98.5707 82.1697 98.5707C78.1499 98.5707 75.6759 96.0452 75.6759 92.2591ZM84.7992 92.3627V92.1814C84.7992 89.9408 83.8709 88.7277 82.2215 88.7277C80.5722 88.7277 79.6698 89.9365 79.6698 92.1814V92.3627C79.6698 94.5774 80.5722 95.7387 82.1956 95.7387C83.8191 95.7387 84.7992 94.5515 84.7992 92.3627Z" fill="#161616"/>
</svg>
