<svg width="122" height="54" viewBox="0 0 122 54" fill="none" xmlns="http://www.w3.org/2000/svg">
<path d="M54 16.2072H61.2149C65.4419 16.2072 67.4755 17.7009 67.4755 20.7402C67.4755 22.3893 66.5731 23.5722 64.9756 24.2198C66.9833 24.9149 68.1707 26.2532 68.1707 28.3427C68.1707 31.7446 66.0075 33.316 61.1631 33.316H54V16.2072ZM60.5456 23.1621C62.3763 23.1621 63.2787 22.4671 63.2787 21.1503C63.3564 19.7861 62.6613 19.1429 61.0119 19.1429H58.0759V23.1621H60.5499H60.5456ZM60.8565 30.376C62.8167 30.376 63.8184 29.7069 63.8184 28.1095C63.8961 26.5381 62.8901 25.7912 60.9083 25.7912H58.0759V30.376H60.8608H60.8565Z" fill="#161616"/>
<path d="M69.915 16.2331H73.9347V19.5832H69.915V16.2331ZM69.9668 21.1547H73.8829V33.316H69.9668V21.1547Z" fill="#161616"/>
<path d="M79.7593 31.7964V33.316H75.9209V16H79.8111V22.6225C80.6099 21.513 81.8707 20.8438 83.4164 20.8438C86.5079 20.8438 88.8006 23.2916 88.8006 27.1555V27.1814C88.8006 31.0711 86.5338 33.6225 83.4164 33.6225C81.8707 33.6225 80.6099 32.9275 79.7593 31.7921V31.7964ZM84.7074 27.3152V27.0562C84.7074 24.7897 83.7273 23.7838 82.1815 23.7838C80.5322 23.7838 79.6557 25.0185 79.6557 27.1339V27.4188C79.6557 29.5299 80.5063 30.6912 82.1815 30.6912C83.7014 30.6912 84.7074 29.5817 84.7074 27.3152Z" fill="#161616"/>
<path d="M90.3506 16.0259H94.2668V33.3117H90.3506V16.0259Z" fill="#161616"/>
<path d="M96.2745 16.2331H100.294V19.5832H96.2745V16.2331ZM96.3263 21.1547H100.242V33.316H96.3263V21.1547Z" fill="#161616"/>
<path d="M101.676 27.2591C101.676 23.4471 104.254 20.8956 108.247 20.8956C112.241 20.8956 114.793 23.4471 114.793 27.2591C114.793 31.0711 112.189 33.5707 108.17 33.5707C104.15 33.5707 101.676 31.0452 101.676 27.2591ZM110.799 27.3627V27.1814C110.799 24.9408 109.871 23.7277 108.222 23.7277C106.572 23.7277 105.67 24.9365 105.67 27.1814V27.3627C105.67 29.5774 106.572 30.7387 108.196 30.7387C109.819 30.7387 110.799 29.5515 110.799 27.3627Z" fill="#161616"/>
<path d="M27.0784 30.2632H15.6176C13.0705 30.2632 11 28.2028 11 25.6681V9.59509C11 7.06035 13.0705 5 15.6176 5H27.0784C34.0768 5 39.7719 10.6674 39.7719 17.6316C39.7719 24.5958 34.0768 30.2632 27.0784 30.2632ZM15.6176 7.24561C14.3172 7.24561 13.2566 8.29825 13.2566 9.59509V25.6681C13.2566 26.9621 14.3144 28.0175 15.6176 28.0175H27.0784C32.8328 28.0175 37.5153 23.3579 37.5153 17.6316C37.5153 11.9053 32.8328 7.24561 27.0784 7.24561H15.6176Z" fill="#161616"/>
<path d="M33.3942 45H21.9334C19.3862 45 17.3158 42.9397 17.3158 40.4049V24.3319C17.3158 21.7972 19.3862 19.7368 21.9334 19.7368H33.3942C40.3926 19.7368 46.0877 25.4042 46.0877 32.3684C46.0877 39.3326 40.3926 45 33.3942 45ZM21.9334 21.9825C20.633 21.9825 19.5724 23.0351 19.5724 24.3319V40.4049C19.5724 41.699 20.6302 42.7544 21.9334 42.7544H33.3942C39.1486 42.7544 43.8311 38.0947 43.8311 32.3684C43.8311 26.6421 39.1486 21.9825 33.3942 21.9825H21.9334Z" fill="#161616"/>
<g clip-path="url(#clip0_225_413)">
<path d="M29.9991 36.438L26.8451 33.1894L25.7928 34.2732L29.9991 38.6055L39.0142 29.3204L37.962 28.2366L29.9991 36.438V36.438Z" fill="black"/>
<path d="M37.9646 28.2366L39.0169 29.3204L29.9991 38.6055L25.7928 34.2732L26.8451 33.1894L30.0018 36.4407L37.9646 28.2366ZM37.9646 27.4561L37.5871 27.845L29.9991 35.6576L27.2226 32.7978L26.8451 32.409L26.4676 32.7978L25.4153 33.8816L25.0378 34.2704L25.4153 34.6593L29.6216 38.9916L29.9991 39.3805L30.3767 38.9916L39.3944 29.7092L39.7719 29.3204L39.3944 28.9315L38.3422 27.8477L37.9646 27.4589V27.4561Z" fill="black"/>
</g>
<defs>
<clipPath id="clip0_225_413">
<rect width="14.7368" height="11.9298" fill="white" transform="translate(25.0351 27.4561)"/>
</clipPath>
</defs>
</svg>
