<svg width="21" height="18" viewBox="0 0 21 18" fill="none" xmlns="http://www.w3.org/2000/svg">
<path d="M19.6668 14.8333C19.6668 15.2754 19.4912 15.6993 19.1787 16.0118C18.8661 16.3244 18.4422 16.5 18.0002 16.5H3.00016C2.55814 16.5 2.13421 16.3244 1.82165 16.0118C1.50909 15.6993 1.3335 15.2754 1.3335 14.8333V5.66667C1.3335 5.22464 1.50909 4.80072 1.82165 4.48816C2.13421 4.17559 2.55814 4 3.00016 4H6.3335L8.00016 1.5H13.0002L14.6668 4H18.0002C18.4422 4 18.8661 4.17559 19.1787 4.48816C19.4912 4.80072 19.6668 5.22464 19.6668 5.66667V14.8333Z" stroke="white" stroke-width="1.67" stroke-linecap="round" stroke-linejoin="round"/>
<path d="M10.5002 13.1667C12.3411 13.1667 13.8335 11.6743 13.8335 9.83333C13.8335 7.99238 12.3411 6.5 10.5002 6.5C8.65921 6.5 7.16683 7.99238 7.16683 9.83333C7.16683 11.6743 8.65921 13.1667 10.5002 13.1667Z" stroke="white" stroke-width="1.67" stroke-linecap="round" stroke-linejoin="round"/>
</svg>
